<mxfile host="app.diagrams.net" modified="2020-10-20T01:40:10.900Z" agent="5.0 (Windows NT 10.0; Win64; x64) AppleWebKit/537.36 (KHTML, like Gecko) Chrome/86.0.4240.75 Safari/537.36" etag="g-_niXe8z8dDHZ7SROwx" version="13.8.0" type="github">
  <diagram id="Y-uNu2sO_qmBk8gNhEU_" name="Page-1">
    <mxGraphModel dx="868" dy="450" grid="1" gridSize="10" guides="1" tooltips="1" connect="1" arrows="1" fold="1" page="1" pageScale="1" pageWidth="827" pageHeight="1169" math="0" shadow="0">
      <root>
        <mxCell id="0" />
        <mxCell id="1" parent="0" />
        <mxCell id="kWWS03SCbqeXtD7t0UiD-1" value="" style="whiteSpace=wrap;html=1;aspect=fixed;" vertex="1" parent="1">
          <mxGeometry x="41" y="80" width="120" height="120" as="geometry" />
        </mxCell>
        <mxCell id="kWWS03SCbqeXtD7t0UiD-2" value="Rangkaian Node 1&amp;nbsp;" style="text;html=1;strokeColor=none;fillColor=none;align=center;verticalAlign=middle;whiteSpace=wrap;rounded=0;" vertex="1" parent="1">
          <mxGeometry x="26" y="80" width="150" height="20" as="geometry" />
        </mxCell>
        <mxCell id="kWWS03SCbqeXtD7t0UiD-3" value="" style="whiteSpace=wrap;html=1;aspect=fixed;" vertex="1" parent="1">
          <mxGeometry x="58" y="100" width="90" height="90" as="geometry" />
        </mxCell>
        <mxCell id="kWWS03SCbqeXtD7t0UiD-4" value="Arduino Mega" style="text;html=1;strokeColor=none;fillColor=none;align=center;verticalAlign=middle;whiteSpace=wrap;rounded=0;" vertex="1" parent="1">
          <mxGeometry x="56" y="100" width="90" height="20" as="geometry" />
        </mxCell>
        <mxCell id="kWWS03SCbqeXtD7t0UiD-5" value="" style="rounded=0;whiteSpace=wrap;html=1;" vertex="1" parent="1">
          <mxGeometry x="74.5" y="130" width="55" height="50" as="geometry" />
        </mxCell>
        <mxCell id="kWWS03SCbqeXtD7t0UiD-6" value="LoRa Shield" style="text;html=1;strokeColor=none;fillColor=none;align=center;verticalAlign=middle;whiteSpace=wrap;rounded=0;" vertex="1" parent="1">
          <mxGeometry x="81" y="135" width="40" height="20" as="geometry" />
        </mxCell>
        <mxCell id="kWWS03SCbqeXtD7t0UiD-8" value="" style="whiteSpace=wrap;html=1;aspect=fixed;" vertex="1" parent="1">
          <mxGeometry x="41" y="280" width="120" height="120" as="geometry" />
        </mxCell>
        <mxCell id="kWWS03SCbqeXtD7t0UiD-9" value="Rangkaian Node 2&amp;nbsp;" style="text;html=1;strokeColor=none;fillColor=none;align=center;verticalAlign=middle;whiteSpace=wrap;rounded=0;" vertex="1" parent="1">
          <mxGeometry x="26" y="280" width="150" height="20" as="geometry" />
        </mxCell>
        <mxCell id="kWWS03SCbqeXtD7t0UiD-10" value="" style="whiteSpace=wrap;html=1;aspect=fixed;" vertex="1" parent="1">
          <mxGeometry x="56" y="300" width="90" height="90" as="geometry" />
        </mxCell>
        <mxCell id="kWWS03SCbqeXtD7t0UiD-11" value="Arduino Mega" style="text;html=1;strokeColor=none;fillColor=none;align=center;verticalAlign=middle;whiteSpace=wrap;rounded=0;" vertex="1" parent="1">
          <mxGeometry x="56" y="300" width="90" height="20" as="geometry" />
        </mxCell>
        <mxCell id="kWWS03SCbqeXtD7t0UiD-12" value="" style="rounded=0;whiteSpace=wrap;html=1;" vertex="1" parent="1">
          <mxGeometry x="73.5" y="330" width="55" height="50" as="geometry" />
        </mxCell>
        <mxCell id="kWWS03SCbqeXtD7t0UiD-13" value="LoRa Shield" style="text;html=1;strokeColor=none;fillColor=none;align=center;verticalAlign=middle;whiteSpace=wrap;rounded=0;" vertex="1" parent="1">
          <mxGeometry x="81" y="335" width="40" height="20" as="geometry" />
        </mxCell>
        <mxCell id="kWWS03SCbqeXtD7t0UiD-14" value="" style="whiteSpace=wrap;html=1;aspect=fixed;" vertex="1" parent="1">
          <mxGeometry x="38" y="480" width="120" height="120" as="geometry" />
        </mxCell>
        <mxCell id="kWWS03SCbqeXtD7t0UiD-15" value="Rangkaian Node 3" style="text;html=1;strokeColor=none;fillColor=none;align=center;verticalAlign=middle;whiteSpace=wrap;rounded=0;" vertex="1" parent="1">
          <mxGeometry x="23" y="480" width="150" height="20" as="geometry" />
        </mxCell>
        <mxCell id="kWWS03SCbqeXtD7t0UiD-16" value="" style="whiteSpace=wrap;html=1;aspect=fixed;" vertex="1" parent="1">
          <mxGeometry x="53" y="500" width="90" height="90" as="geometry" />
        </mxCell>
        <mxCell id="kWWS03SCbqeXtD7t0UiD-17" value="Arduino Mega" style="text;html=1;strokeColor=none;fillColor=none;align=center;verticalAlign=middle;whiteSpace=wrap;rounded=0;" vertex="1" parent="1">
          <mxGeometry x="53" y="500" width="90" height="20" as="geometry" />
        </mxCell>
        <mxCell id="kWWS03SCbqeXtD7t0UiD-18" value="" style="rounded=0;whiteSpace=wrap;html=1;" vertex="1" parent="1">
          <mxGeometry x="70.5" y="530" width="55" height="50" as="geometry" />
        </mxCell>
        <mxCell id="kWWS03SCbqeXtD7t0UiD-19" value="LoRa Shield" style="text;html=1;strokeColor=none;fillColor=none;align=center;verticalAlign=middle;whiteSpace=wrap;rounded=0;" vertex="1" parent="1">
          <mxGeometry x="78" y="535" width="40" height="20" as="geometry" />
        </mxCell>
        <mxCell id="kWWS03SCbqeXtD7t0UiD-20" value="" style="rounded=0;whiteSpace=wrap;html=1;" vertex="1" parent="1">
          <mxGeometry x="280" y="80" width="520" height="520" as="geometry" />
        </mxCell>
        <mxCell id="kWWS03SCbqeXtD7t0UiD-22" value="" style="rounded=0;whiteSpace=wrap;html=1;" vertex="1" parent="1">
          <mxGeometry x="292" y="300" width="120" height="80" as="geometry" />
        </mxCell>
        <mxCell id="kWWS03SCbqeXtD7t0UiD-23" value="LoRa Gateway" style="text;html=1;strokeColor=none;fillColor=none;align=center;verticalAlign=middle;whiteSpace=wrap;rounded=0;" vertex="1" parent="1">
          <mxGeometry x="307" y="308" width="90" height="20" as="geometry" />
        </mxCell>
        <mxCell id="kWWS03SCbqeXtD7t0UiD-24" value="" style="rounded=0;whiteSpace=wrap;html=1;" vertex="1" parent="1">
          <mxGeometry x="296.5" y="330" width="111" height="42.5" as="geometry" />
        </mxCell>
        <mxCell id="kWWS03SCbqeXtD7t0UiD-25" value="Packet Forwarder" style="text;html=1;strokeColor=none;fillColor=none;align=center;verticalAlign=middle;whiteSpace=wrap;rounded=0;" vertex="1" parent="1">
          <mxGeometry x="302" y="341.25" width="100" height="20" as="geometry" />
        </mxCell>
        <mxCell id="kWWS03SCbqeXtD7t0UiD-26" value="&lt;br&gt;&lt;br&gt;" style="rounded=0;whiteSpace=wrap;html=1;" vertex="1" parent="1">
          <mxGeometry x="430" y="120" width="360" height="440" as="geometry" />
        </mxCell>
        <mxCell id="kWWS03SCbqeXtD7t0UiD-27" value="Raspberry Pi" style="text;html=1;strokeColor=none;fillColor=none;align=center;verticalAlign=middle;whiteSpace=wrap;rounded=0;" vertex="1" parent="1">
          <mxGeometry x="430" y="90" width="80" height="20" as="geometry" />
        </mxCell>
        <mxCell id="kWWS03SCbqeXtD7t0UiD-29" value="" style="rounded=0;whiteSpace=wrap;html=1;" vertex="1" parent="1">
          <mxGeometry x="467" y="135" width="120" height="60" as="geometry" />
        </mxCell>
        <mxCell id="kWWS03SCbqeXtD7t0UiD-30" value="Chirpstack Gateway Bridge" style="text;html=1;strokeColor=none;fillColor=none;align=center;verticalAlign=middle;whiteSpace=wrap;rounded=0;" vertex="1" parent="1">
          <mxGeometry x="467" y="155" width="120" height="20" as="geometry" />
        </mxCell>
        <mxCell id="kWWS03SCbqeXtD7t0UiD-32" value="" style="rounded=0;whiteSpace=wrap;html=1;" vertex="1" parent="1">
          <mxGeometry x="640" y="135" width="120" height="60" as="geometry" />
        </mxCell>
        <mxCell id="kWWS03SCbqeXtD7t0UiD-31" value="Chirpstack Network Server" style="text;html=1;strokeColor=none;fillColor=none;align=center;verticalAlign=middle;whiteSpace=wrap;rounded=0;" vertex="1" parent="1">
          <mxGeometry x="645" y="155" width="110" height="20" as="geometry" />
        </mxCell>
        <mxCell id="kWWS03SCbqeXtD7t0UiD-33" value="" style="rounded=0;whiteSpace=wrap;html=1;" vertex="1" parent="1">
          <mxGeometry x="467" y="268" width="120" height="60" as="geometry" />
        </mxCell>
        <mxCell id="kWWS03SCbqeXtD7t0UiD-34" value="Mosquitto (Pub/Sub Broker)" style="text;html=1;strokeColor=none;fillColor=none;align=center;verticalAlign=middle;whiteSpace=wrap;rounded=0;" vertex="1" parent="1">
          <mxGeometry x="477" y="277" width="100" height="42" as="geometry" />
        </mxCell>
        <mxCell id="kWWS03SCbqeXtD7t0UiD-35" value="" style="rounded=0;whiteSpace=wrap;html=1;" vertex="1" parent="1">
          <mxGeometry x="462" y="400" width="130" height="100" as="geometry" />
        </mxCell>
        <mxCell id="kWWS03SCbqeXtD7t0UiD-36" value="Program Python Subscriber,&lt;br&gt;Insert data to Database,&amp;nbsp;&lt;br&gt;publisher over Flutter" style="text;html=1;strokeColor=none;fillColor=none;align=center;verticalAlign=middle;whiteSpace=wrap;rounded=0;" vertex="1" parent="1">
          <mxGeometry x="462" y="400" width="130" height="100" as="geometry" />
        </mxCell>
        <mxCell id="kWWS03SCbqeXtD7t0UiD-39" style="edgeStyle=orthogonalEdgeStyle;rounded=0;orthogonalLoop=1;jettySize=auto;html=1;exitX=0.75;exitY=0;exitDx=0;exitDy=0;entryX=0.75;entryY=0;entryDx=0;entryDy=0;" edge="1" parent="1" source="kWWS03SCbqeXtD7t0UiD-37" target="kWWS03SCbqeXtD7t0UiD-38">
          <mxGeometry relative="1" as="geometry" />
        </mxCell>
        <mxCell id="kWWS03SCbqeXtD7t0UiD-37" value="" style="rounded=0;whiteSpace=wrap;html=1;" vertex="1" parent="1">
          <mxGeometry x="640" y="230" width="120" height="60" as="geometry" />
        </mxCell>
        <mxCell id="kWWS03SCbqeXtD7t0UiD-38" value="Chirpstack Application Server" style="text;html=1;strokeColor=none;fillColor=none;align=center;verticalAlign=middle;whiteSpace=wrap;rounded=0;" vertex="1" parent="1">
          <mxGeometry x="642.5" y="252" width="115" height="20" as="geometry" />
        </mxCell>
        <mxCell id="kWWS03SCbqeXtD7t0UiD-40" value="" style="rounded=0;whiteSpace=wrap;html=1;" vertex="1" parent="1">
          <mxGeometry x="645" y="350" width="120" height="30" as="geometry" />
        </mxCell>
        <mxCell id="kWWS03SCbqeXtD7t0UiD-41" value="Android Application" style="text;html=1;strokeColor=none;fillColor=none;align=center;verticalAlign=middle;whiteSpace=wrap;rounded=0;" vertex="1" parent="1">
          <mxGeometry x="645" y="355" width="120" height="20" as="geometry" />
        </mxCell>
        <mxCell id="kWWS03SCbqeXtD7t0UiD-43" value="" style="rounded=0;whiteSpace=wrap;html=1;" vertex="1" parent="1">
          <mxGeometry x="645" y="435" width="120" height="30" as="geometry" />
        </mxCell>
        <mxCell id="kWWS03SCbqeXtD7t0UiD-42" value="Web Service API" style="text;html=1;strokeColor=none;fillColor=none;align=center;verticalAlign=middle;whiteSpace=wrap;rounded=0;" vertex="1" parent="1">
          <mxGeometry x="650" y="435" width="110" height="30" as="geometry" />
        </mxCell>
        <mxCell id="kWWS03SCbqeXtD7t0UiD-44" value="" style="rounded=0;whiteSpace=wrap;html=1;" vertex="1" parent="1">
          <mxGeometry x="645" y="520" width="120" height="30" as="geometry" />
        </mxCell>
        <mxCell id="kWWS03SCbqeXtD7t0UiD-45" value="Database MySQL" style="text;html=1;strokeColor=none;fillColor=none;align=center;verticalAlign=middle;whiteSpace=wrap;rounded=0;" vertex="1" parent="1">
          <mxGeometry x="650" y="525" width="110" height="20" as="geometry" />
        </mxCell>
        <mxCell id="kWWS03SCbqeXtD7t0UiD-55" value="LoRa Radio&amp;nbsp;&lt;br&gt;Communication" style="endArrow=block;dashed=1;html=1;exitX=1;exitY=0.5;exitDx=0;exitDy=0;entryX=0;entryY=0.5;entryDx=0;entryDy=0;startArrow=block;startFill=1;endFill=1;" edge="1" parent="1" source="kWWS03SCbqeXtD7t0UiD-14" target="kWWS03SCbqeXtD7t0UiD-22">
          <mxGeometry width="50" height="50" relative="1" as="geometry">
            <mxPoint x="215" y="525" as="sourcePoint" />
            <mxPoint x="230" y="350" as="targetPoint" />
          </mxGeometry>
        </mxCell>
        <mxCell id="kWWS03SCbqeXtD7t0UiD-56" value="LoRa &lt;br&gt;Radio&amp;nbsp;&lt;br&gt;Communication" style="endArrow=block;dashed=1;html=1;exitX=1;exitY=0.5;exitDx=0;exitDy=0;entryX=0;entryY=0.5;entryDx=0;entryDy=0;startArrow=block;startFill=1;endFill=1;" edge="1" parent="1" source="kWWS03SCbqeXtD7t0UiD-8" target="kWWS03SCbqeXtD7t0UiD-22">
          <mxGeometry width="50" height="50" relative="1" as="geometry">
            <mxPoint x="380" y="460" as="sourcePoint" />
            <mxPoint x="290" y="340" as="targetPoint" />
          </mxGeometry>
        </mxCell>
        <mxCell id="kWWS03SCbqeXtD7t0UiD-57" value="LoRa Radio &lt;br&gt;Communication" style="endArrow=block;dashed=1;html=1;entryX=1;entryY=0.5;entryDx=0;entryDy=0;exitX=0;exitY=0.5;exitDx=0;exitDy=0;rounded=1;startArrow=block;startFill=1;endFill=1;" edge="1" parent="1" source="kWWS03SCbqeXtD7t0UiD-22" target="kWWS03SCbqeXtD7t0UiD-1">
          <mxGeometry width="50" height="50" relative="1" as="geometry">
            <mxPoint x="380" y="360" as="sourcePoint" />
            <mxPoint x="430" y="310" as="targetPoint" />
          </mxGeometry>
        </mxCell>
        <mxCell id="kWWS03SCbqeXtD7t0UiD-59" value="UDP" style="endArrow=classic;startArrow=classic;html=1;strokeColor=#000000;entryX=0;entryY=0.5;entryDx=0;entryDy=0;exitX=1;exitY=0.75;exitDx=0;exitDy=0;fontFamily=Times New Roman;" edge="1" parent="1" source="kWWS03SCbqeXtD7t0UiD-24" target="kWWS03SCbqeXtD7t0UiD-29">
          <mxGeometry x="0.4402" width="50" height="50" relative="1" as="geometry">
            <mxPoint x="380" y="360" as="sourcePoint" />
            <mxPoint x="430" y="310" as="targetPoint" />
            <mxPoint as="offset" />
          </mxGeometry>
        </mxCell>
        <mxCell id="kWWS03SCbqeXtD7t0UiD-65" value="MQTT" style="endArrow=classic;startArrow=classic;html=1;strokeColor=#000000;fontFamily=Times New Roman;entryX=0.5;entryY=1;entryDx=0;entryDy=0;exitX=0.5;exitY=0;exitDx=0;exitDy=0;" edge="1" parent="1" source="kWWS03SCbqeXtD7t0UiD-33" target="kWWS03SCbqeXtD7t0UiD-29">
          <mxGeometry width="50" height="50" relative="1" as="geometry">
            <mxPoint x="570" y="391.25" as="sourcePoint" />
            <mxPoint x="620" y="341.25" as="targetPoint" />
          </mxGeometry>
        </mxCell>
        <mxCell id="kWWS03SCbqeXtD7t0UiD-69" value="MQTT" style="endArrow=classic;startArrow=classic;html=1;strokeColor=#000000;fontFamily=Times New Roman;entryX=0.5;entryY=1;entryDx=0;entryDy=0;exitX=0.5;exitY=0;exitDx=0;exitDy=0;" edge="1" parent="1" source="kWWS03SCbqeXtD7t0UiD-35" target="kWWS03SCbqeXtD7t0UiD-33">
          <mxGeometry width="50" height="50" relative="1" as="geometry">
            <mxPoint x="527" y="390" as="sourcePoint" />
            <mxPoint x="510" y="310" as="targetPoint" />
          </mxGeometry>
        </mxCell>
        <mxCell id="kWWS03SCbqeXtD7t0UiD-71" value="HTTP" style="endArrow=classic;html=1;strokeColor=#000000;fontFamily=Times New Roman;exitX=1;exitY=0.5;exitDx=0;exitDy=0;entryX=0;entryY=0.5;entryDx=0;entryDy=0;" edge="1" parent="1" source="kWWS03SCbqeXtD7t0UiD-36" target="kWWS03SCbqeXtD7t0UiD-43">
          <mxGeometry width="50" height="50" relative="1" as="geometry">
            <mxPoint x="590" y="440" as="sourcePoint" />
            <mxPoint x="640" y="390" as="targetPoint" />
          </mxGeometry>
        </mxCell>
        <mxCell id="kWWS03SCbqeXtD7t0UiD-73" value="TCP" style="endArrow=classic;html=1;strokeColor=#000000;fontFamily=Times New Roman;entryX=0.5;entryY=0;entryDx=0;entryDy=0;" edge="1" parent="1" target="kWWS03SCbqeXtD7t0UiD-45">
          <mxGeometry width="50" height="50" relative="1" as="geometry">
            <mxPoint x="590" y="450" as="sourcePoint" />
            <mxPoint x="360" y="380" as="targetPoint" />
          </mxGeometry>
        </mxCell>
        <mxCell id="kWWS03SCbqeXtD7t0UiD-74" value="" style="endArrow=classic;startArrow=classic;html=1;strokeColor=#000000;fontFamily=Times New Roman;entryX=0.5;entryY=1;entryDx=0;entryDy=0;exitX=0.5;exitY=0;exitDx=0;exitDy=0;" edge="1" parent="1" source="kWWS03SCbqeXtD7t0UiD-45" target="kWWS03SCbqeXtD7t0UiD-42">
          <mxGeometry width="50" height="50" relative="1" as="geometry">
            <mxPoint x="700" y="520" as="sourcePoint" />
            <mxPoint x="360" y="380" as="targetPoint" />
          </mxGeometry>
        </mxCell>
        <mxCell id="kWWS03SCbqeXtD7t0UiD-75" value="HTTP" style="endArrow=classic;html=1;strokeColor=#000000;fontFamily=Times New Roman;entryX=0.5;entryY=0;entryDx=0;entryDy=0;exitX=0.5;exitY=1;exitDx=0;exitDy=0;" edge="1" parent="1" source="kWWS03SCbqeXtD7t0UiD-40" target="kWWS03SCbqeXtD7t0UiD-42">
          <mxGeometry width="50" height="50" relative="1" as="geometry">
            <mxPoint x="705" y="390" as="sourcePoint" />
            <mxPoint x="670" y="380" as="targetPoint" />
          </mxGeometry>
        </mxCell>
        <mxCell id="kWWS03SCbqeXtD7t0UiD-77" value="MQTT over&lt;br&gt;Flutter" style="endArrow=classic;startArrow=classic;html=1;strokeColor=#000000;fontFamily=Times New Roman;exitX=0;exitY=0.75;exitDx=0;exitDy=0;entryX=0.5;entryY=1;entryDx=0;entryDy=0;" edge="1" parent="1" source="kWWS03SCbqeXtD7t0UiD-41" target="kWWS03SCbqeXtD7t0UiD-33">
          <mxGeometry x="-0.0655" width="50" height="50" relative="1" as="geometry">
            <mxPoint x="592" y="380" as="sourcePoint" />
            <mxPoint x="642" y="330" as="targetPoint" />
            <mxPoint x="1" as="offset" />
          </mxGeometry>
        </mxCell>
        <mxCell id="kWWS03SCbqeXtD7t0UiD-78" value="MQTT" style="endArrow=classic;html=1;strokeColor=#000000;fontFamily=Times New Roman;entryX=1;entryY=0.5;entryDx=0;entryDy=0;" edge="1" parent="1" target="kWWS03SCbqeXtD7t0UiD-33">
          <mxGeometry width="50" height="50" relative="1" as="geometry">
            <mxPoint x="640" y="257" as="sourcePoint" />
            <mxPoint x="695" y="300" as="targetPoint" />
          </mxGeometry>
        </mxCell>
        <mxCell id="kWWS03SCbqeXtD7t0UiD-79" value="MQTT" style="endArrow=classic;html=1;strokeColor=#000000;fontFamily=Times New Roman;exitX=0;exitY=0.417;exitDx=0;exitDy=0;exitPerimeter=0;startArrow=block;startFill=1;entryX=1;entryY=0.5;entryDx=0;entryDy=0;" edge="1" parent="1" source="kWWS03SCbqeXtD7t0UiD-32" target="kWWS03SCbqeXtD7t0UiD-33">
          <mxGeometry width="50" height="50" relative="1" as="geometry">
            <mxPoint x="587" y="240" as="sourcePoint" />
            <mxPoint x="590" y="290" as="targetPoint" />
          </mxGeometry>
        </mxCell>
        <mxCell id="kWWS03SCbqeXtD7t0UiD-80" value="gRPC" style="endArrow=classic;startArrow=classic;html=1;strokeColor=#000000;fontFamily=Times New Roman;entryX=0.5;entryY=1;entryDx=0;entryDy=0;exitX=0.5;exitY=0;exitDx=0;exitDy=0;" edge="1" parent="1" source="kWWS03SCbqeXtD7t0UiD-37" target="kWWS03SCbqeXtD7t0UiD-32">
          <mxGeometry width="50" height="50" relative="1" as="geometry">
            <mxPoint x="620" y="320" as="sourcePoint" />
            <mxPoint x="670" y="270" as="targetPoint" />
          </mxGeometry>
        </mxCell>
        <mxCell id="kWWS03SCbqeXtD7t0UiD-81" value="HTTP" style="endArrow=classic;html=1;strokeColor=#000000;fontFamily=Times New Roman;entryX=0;entryY=0.75;entryDx=0;entryDy=0;" edge="1" parent="1" target="kWWS03SCbqeXtD7t0UiD-41">
          <mxGeometry width="50" height="50" relative="1" as="geometry">
            <mxPoint x="590" y="450" as="sourcePoint" />
            <mxPoint x="670" y="370" as="targetPoint" />
          </mxGeometry>
        </mxCell>
      </root>
    </mxGraphModel>
  </diagram>
</mxfile>
